<?xml version="1.0" encoding="utf-8"?>
<!-- Generator: Adobe Illustrator 28.0.0, SVG Export Plug-In . SVG Version: 6.00 Build 0)  -->
<svg version="1.1" id="Capa_1" xmlns="http://www.w3.org/2000/svg" xmlns:xlink="http://www.w3.org/1999/xlink" x="0px" y="0px"
	 viewBox="0 0 200.2 138.9" style="enable-background:new 0 0 200.2 138.9;" xml:space="preserve">
<style type="text/css">
	.st0{fill:#219DBB;}
	.st1{fill:#FFF8EA;}
	.st2{fill:#9BBEB8;}
	.st3{fill:#023047;}
	.st4{fill:#FFE299;}
</style>
<g>
	<path class="st0" d="M187.8,86.5l-1.3,1c0.2-0.1,0.5-0.2,0.8-0.3C187.7,87,187.7,86.8,187.8,86.5z"/>
	<path class="st0" d="M185.4,88.4c-0.1,0.1-0.2,0.1-0.2,0.2s-0.1,0.1-0.1,0.2L185.4,88.4z"/>
	<path class="st0" d="M183.3,90.3c0.4-0.2,0.8-0.6,1.1-0.9C184,89.6,183.7,89.9,183.3,90.3z"/>
	<path class="st0" d="M185.2,89.1c-0.2,0-0.4,0-0.2-0.3l0,0c-0.2,0.2-0.4,0.4-0.6,0.6C184.7,89.3,184.9,89.2,185.2,89.1z"/>
	<path class="st0" d="M185.2,89.1c0.2,0,0.5-0.1,0.6-0.1C185.6,89,185.4,89.1,185.2,89.1z"/>
	<path class="st0" d="M186.5,92c-0.2,0.3-0.7-0.5-1,0c-1,1-1.7,2-2.8,2.8c-0.4,0.5-1.7,0.2-2.1,0.6c-0.6,0.5-1.5,1.4-2.2,2
		c-0.6,0.6-0.8,1,0.1,0.6c3-1.6,4.7-3,6.9-4.8c1.7-1.7,3.1-3.4,4.6-5.1c0.5-0.5,1-0.8,1.4-1.2c-0.7,0.4-1.4,0.9-2.1,1.4
		C188.2,88.8,187.9,90.6,186.5,92z"/>
	<path class="st0" d="M197.3,78.7c-0.2,0.3-0.5,0.8-0.5,0.8c-1.4,0.4-2.2,1.5-3.1,2.6l0.7-0.1c0.5-0.6,0.4-0.8-0.2-0.5
		c1.5-0.7,2.7-1.6,3.8-2.6C197.8,78.7,197.7,78.5,197.3,78.7z"/>
	<path class="st0" d="M198.7,78.2c-0.2,0.2-0.4,0.4-0.6,0.6h0.1C198.3,78.7,198.5,78.4,198.7,78.2L198.7,78.2z"/>
	<path class="st0" d="M178.6,94.2c-1.7,0.9-3.4,1.6-5,2.5s-3.2,1.7-4.7,2.5c-0.2,0.3-0.2,0.5-0.6,0.6c-0.3,0-0.6,0-0.9,0.1l-1.4,0.7
		c-0.1,0.1-0.3,0.2-0.5,0.3l0,0c-0.2,0.2-0.1,0.3,0.1,0.3c0.2,0,0.4,0,0.6,0c-0.1,0-0.4,0-0.6,0c-0.3,0-0.5,0-0.9,0.1
		c-0.4,0.2-0.8,0.5-1.3,0.7c0.5-0.3,0.9-0.5,1.3-0.7c0.3-0.2,0.5-0.3,0.7-0.5l0.2-0.2c-1.1,0.5-2.1,1-3.2,1.4
		c-0.2,0.1-0.5,0.2-0.6,0.3c-0.7,0.4-1.5,0.8-2.1,0.6c-0.2,0.1-0.4,0.1-0.6,0.2h0.1c-0.1,0-0.2,0-0.2,0c-0.8,0.2-1.7,0.4-2.5,0.6
		c-0.5,0.3-1,0.6-1.6,0.8c0,0-0.4-0.2-0.6-0.3c-0.2,0.2-0.5,0.4-0.9,0.6c0.5,0.2,1,0.4,1.4,0.5c0.7,0.3,1.1-1.1,2-0.5
		c-0.9-0.6-1.3,0.8-2,0.5c-0.4-0.1-0.9-0.3-1.4-0.5c-0.8,0.2-1.9,0.2-2.8-0.2c1-0.4,1.9-0.1,2.8,0.2c0.4-0.1,0.7-0.3,0.9-0.6
		c0.2,0.1,0.6,0.3,0.6,0.3c0.6-0.2,1.1-0.6,1.6-0.8c-1.7,0.3-3.4,0.5-5.1,0.5c-2.1,0-4.1-0.2-6.1-0.6s-3.9-0.9-5.5-1.8
		c-1.7-0.9-3.1-2.1-4.1-3.7c-0.3-0.5-0.6-1.2-0.9-1.8c-0.3-0.7-0.5-1.5-0.7-2.2c-0.4-1.5-0.8-3.2-1.1-4.7l-0.3-0.1c0,0,0,0-0.1,0
		l-0.1,0.1l-0.2,0.2l-1,1c-0.7,0.7-1.4,1.4-2.1,2c-0.7,0.7-1.4,1.4-2.2,2c-0.4,0.3-0.8,0.6-1.2,1l-0.6,0.5l-0.5,0.3
		c-2.5,1.8-5.2,3.4-7.8,4.3c-2.7,1-5.4,1.3-7.6,0.6c-2.3-0.7-4.2-2.1-5.7-4.3c-0.4-0.5-0.7-1.1-1.1-1.7c-0.7-1.2-1.2-2.4-1.7-3.7
		L99.3,88l-0.7-1.9l-0.4-1c-0.1-0.2-0.1-0.3-0.2-0.5l-0.2-0.3c-1.6,1.8-3.4,3.9-5.1,5.7c-0.9,0.9-1.8,1.6-2.7,2.3
		c-0.2,0.1-0.6,0.4-0.7,0.4L89,93l-0.8,0.4c-2.1,1.1-4.5,2-6.8,2.1c-1.9,0.2-4.3,0.4-5.3-0.1c-0.5-0.2-0.9-0.4-1.3-1s-0.7-1.3-1-2.1
		c-0.4-0.7-1.2-1.7-1.7-2.1c-0.6-0.4-1.2-0.5-1.8-0.4c-1.1,0.1-2,1.1-2.1,1.3c-1.3,2.1-1.3,4.1-0.3,6.4c0.5,1.2,1.4,2.5,2.7,3.7
		c1.3,1.3,3.5,2,3.9,2.1c0.6,0.2,2.7,0.5,4.6,0.5c3.4,0.1,4.9,0.1,7.7-0.7c2.5-0.7,4.5-1.4,6.9-2.6c0.3-0.2,0.6-0.3,0.9-0.5
		c0.1-0.1,0.1,0,0.1,0s0.1,0,0.1-0.1c0.1-0.1,0.1-0.2,0.2-0.4c0.1-0.1,0.2,0.1,0.4,0.3l0.1,0.1l0,0c-0.1-0.1-0.1-0.1-0.1-0.1l0,0
		l0.1,0.1l0.2,0.4c0.3,0.5,0.6,1,1,1.5c0.7,1,1.5,2,2.3,2.9c2,2.1,5,4,8.8,4.6c3.3,0.8,6.5,0.4,9.3-0.4s5.2-2,7.5-3.4
		c1.1-0.7,2.2-1.4,3.2-2.2c0.5-0.4,1-0.8,1.5-1.2l0.4-0.3c-0.1,0,0,0,0,0l0,0c0-0.1,0.1-0.4,0.2-0.4l0.1,0.1l0.3,0.4
		c1.7,2.4,4.2,4.4,6.8,5.8c2.3,1.1,4.5,1.5,6.5,1.6c1.9,0.1,3.8-0.1,5.6-0.2c2.6,0,5.5,0,7.6-0.4c3.3-0.7,5.9-2,8.1-3.4
		c-2.6,1.3-4.6,2.3-7.9,3.2c-2.2,0.5,1.4-1.4,2.6-2.1c0.5-0.3,1.8,0.2,2.3-0.2c1.3-0.5,2.3-1.3,3.4-2.1c0.5-0.4,0.8,0.4,1,0.2
		c1.7-1,2.4-2.7,3.6-3c0.8-0.3,1.6-0.6,2.4-0.9c0.5-0.2,0.9-0.4,1.3-0.7c0.2-0.2,0.5-0.4,0.8-0.7c-0.4-0.1-0.6-0.3-0.8-0.6
		c0.4-0.2,1.1-0.3,1.6-0.5c-0.4,0.2-1.1,0.3-1.6,0.5c0.2,0.2,0.5,0.5,0.8,0.6c0.9-0.8,1.9-1.6,3-2.3c1.1-0.8,2.3-1.6,3.4-2.4h-0.1
		c-1.3,0.9-2.7,1.5-4.4,1.7c0.7-0.1,0.7,0.1,0,0.5l-0.7-0.1c1.1-0.8,2.2-1.6,3.7-1.6c0,0,0.4-0.4,0.6-0.7c0.4-0.1,0.6,0.1,0.7,0.3
		c0.2-0.2,0.5-0.4,0.7-0.5C180.6,93.8,178.6,94.2,178.6,94.2z"/>
	<path class="st0" d="M164.8,101.4c0.2-0.1,0.4-0.2,0.6-0.4c-0.9,0.4-1.8,0.8-2.7,1.1C163.3,102.3,164.1,101.9,164.8,101.4z"/>
</g>
<g>
	<path class="st1" d="M186.2,57.9c-1.2,0-2,0.3-2.3,1l-0.7,0.8l-2.5,2.8c-0.2,0.5-0.5,0.7-1,0.8c-0.8,0.5-2,1.7-3.4,3.2l-2.3,2.2
		c-0.8,0.5-1.8,1.5-3.2,2.8c-0.7,0.8-1.8,1.7-3.4,2.8c-2.7,1.8-5.4,2.8-7.9,4.4c-0.3,0.2-1,0.5-2,0.7c-1.7,0.7-2.5,1-2.5,1
		s-0.3,0-0.8,0H153c-0.5,0.2-0.8,0.2-1,0c-0.5-0.2-1.3-0.2-2.2,0c-2.2,0.5-4.2,0.2-6-1c-1.3-1-2-1.5-1.8-1.3c-0.5-0.5-0.7-0.8-0.7-1
		c-0.8-2.2-1-4.7-0.2-7.2c0.2-1.3,0.8-3,1.7-5.2c0.5-1,1-1.8,1.7-2.7c0.2-0.3,0.5-0.5,1-0.3c0,0,0.3,0,0.5,0c4,0.8,7.4,0.3,10.2-1.5
		l2.8-2l1.5-1.2c1.8-1.3,3.2-2.7,4.2-4c0.8-0.8,1.3-2.2,1.2-3.7v-1.5c0-1.2-0.2-2-0.2-3.2c-0.2-0.8-0.5-1.8-1-2.7
		c-0.3-0.8-1-1.5-2-2c-1.7-0.7-3.2-1-4.7-0.8c-2.8,0.2-4.9,0.7-6.2,1.2c-0.5,0.2-0.7,0.3-0.8,0.3c-2.8,0.8-4.9,2-6.2,3.7
		c0,0-0.5,0.5-1.3,1.3s-1.8,2.3-3.2,4.4c-1.5,1.8-3,4.5-4.5,8c-0.7,1.8-1,3.2-1.2,3.9c-0.2,0.9-0.3,1.8-0.4,2.7
		c-1.2,1.3-2.1,2.2-2.8,2.9c-1.8,1.8-3.5,3.2-5,4.7c-0.7,0.5-0.8,0.8-1.3,1c-1.2,0.8-2,1.7-2.3,2.8c-0.2,0.8-0.8,1.3-1.7,1.5
		c-0.5,0-1,0.2-1.5,0.7c-0.7,0.5-1.2,1-1.8,1.2c-1,0.8-2.2,1.3-3.5,1.7h-0.8c-0.8,0.2-1.3-0.2-1.7-1c-0.8-1.5-1.2-2.7-1.2-3.4
		c-0.5-2,0-4.2-0.5-6.4v-0.2c0.5-2,0.3-4,1-6c0.7-2.7,1.2-5.9,2-8.5c0.5-1.5,0.8-4,1.3-7.2c0.2-0.8,0-1.5-0.2-2.3
		c-0.2-0.5-0.3-1-0.3-1.7c-0.2-0.5-0.5-0.8-0.8-1.3c-0.5-0.5-1.2-1-1.8-1.3c-0.2,0-0.5-0.2-1.2-0.3c-1-0.3-1.5-0.5-1.5-0.5
		c-0.3,0-0.7,0.3-0.8,1.2c-0.2,0.2-0.3,0.3-0.3,0.3c-1.8,2-3.2,4.2-4.7,6.2c-1.2,1.5-2.7,3.7-4.7,6.9c-1.3,2.2-2.5,3.7-3.4,4.5
		c0,0-0.2,0.3-0.5,1c-0.3,1-1,1.8-1.8,2.5c-0.5,0.2-0.8,0.7-1,0.7c-0.8,1.3-2,2.7-2.7,4l-2.2,3c-0.5,0.5-0.8,0.8-0.8,0.8
		c-0.2,0.7-0.8,1.5-1.7,2.3c-0.2,0.2-0.3,0.3-0.8,0.5c-0.5,0-0.7-0.2-0.7-0.5c-0.2-1.7-0.2-3,0.3-4l3.4-9.1c0-0.2,0.2-0.5,0.3-0.7
		c1.5-2.8,2.8-4.9,4.2-6.4c0.5-0.7,0.7-1.3,1.3-2l2.3-2.5c1-1.2,2.5-1.8,4.5-1.7H99c0.5,0,0.8-0.2,0.8-0.7c0-1.2-0.5-2-1.3-2.7
		c-1.2-1-2.3-1.5-3.2-1.5c-0.2,0-0.8-0.2-1.8-0.5c-0.8,0-1.2,0-1.3,0.2c-0.3,0.3-1,0.7-2,0.8c-1.3,0.7-2,1-2,1
		c-0.7,0.2-1.2,0.5-1.3,1c-0.5,0.5-0.7,0.7-0.7,0.7c-0.8,0.5-1.8,1.7-2.8,3.2c-1.5,2.2-2.8,4.9-4.2,6.9c-1,1.5-1.8,3.5-2.3,5.9
		c-0.2,1.5-0.5,2.5-0.7,3c-0.3,1.5-0.5,2.7-0.3,3.5c0,0.7,0,0.8,0,0.8c-0.2,1.7,0.2,3.4,1,5c0.2,0.5,0.7,1.3,1.3,2.5
		c0.5,1.2,1.3,1.8,2.2,2.3l3.5,2c0.2,0,0.3,0.2,0.8,0.2c0.8,0.2,1.3,0.2,1.7-0.3c0.8-0.7,1.5-1.8,2.8-2c0.5-0.5,1-1,1.2-1.3
		c0.5-0.5,0.8-1.2,1.5-1.8c1.3-1.3,2.3-3.4,3.7-4.9c0.2,0,0.3-0.3,0.7-1c1.3-2.5,3-4.7,4.4-7.4c0.7-0.7,1.2-1.8,1.8-2.7
		c0,0,0.3,0,0.5,0s0.3,0.2,0.3,0.7v2c0,2-0.2,3.9,0,5.9c0,1.8,0.5,3.7,1.3,5.9c0.5,1.3,1.2,2.3,1.8,3.7c0.2,0.8,0.8,1.5,1.7,2.3
		c1.5,1.8,3,3,4.5,3.7l2.2,1.2c1.3,0.7,2.5,0.7,3.9,0.7c0,0,0.3-0.2,0.5-0.2c1.7-1.2,2.7-1.7,3.2-1.8c0,0,0.2-0.2,0.7-0.7
		c2.5-1.8,4.5-4.2,6.7-6.4c1.3-1.3,3.7-4.9,4.8-6.2c0.2,1.5,0.6,3.2,1,4.8c0.2,1.2,0.7,2,1.2,2.7c0.5,0.5,0.7,0.7,0.7,0.7
		c1.5,1.2,2.7,2,3.4,2.7c0,0.2,0.5,0.5,0.7,0.5c0.8,0.7,1.8,1.2,3,1.7c0.8,0.5,1.7,0.8,2.5,0.8c1.5,0.5,3.4,0.3,5.2,0.8
		c0.3,0.2,0.7,0.2,1.2,0c0.2,0,0.7-0.2,1.3-0.3c1.5-0.7,3-1.2,4.5-1.3c0.3,0,0.5,0,0.7-0.2c1.2-0.2,1.8-0.5,2.2-0.7
		c2.3-0.8,3.9-1.5,4.7-2.2c1.5-1.2,3-2,4.7-2.7c0,0,0.5-0.2,0.7-0.3c1.2-0.8,2.5-2,3.9-2.8c0.5-0.3,0.8-0.7,1-1
		c0.7-0.8,1.8-2.2,3.7-3.7l0.8-1c1.2-2,1.8-3.5,2.3-4.5c0.5-1.2,1-2.3,1.7-3.2c0.2-0.7,0.5-1.5,1-2.2c0.2-0.5,0.3-0.8,0.3-1.2
		C186.7,58.1,186.5,57.9,186.2,57.9z M147.3,56.9c0-0.5,0.2-0.8,0.3-1c0.7-0.8,0.7-2.2,1.8-3c-0.2,0.2,0-0.3,0.5-1.8
		c0-0.7,0.2-1.2,0.7-1.5c0.5-0.2,0.8-0.8,1.3-1.7c0.8-1.5,2.3-3,4.7-4.4c0.2,0,1.2-0.3,3.4-1c0.5,0,0.8,0.2,0.8,0.7
		c0,0.2,0,0.5,0,0.5v2c0,0,0,0.5,0,0.7c0.2,2.7-1.2,4.9-3.7,6.5l-4.9,3.5c-0.7,0.3-1,0.5-1.2,0.5c-1.3,0.5-2.3,0.7-3.2,0.8
		c-0.2,0-0.3,0-0.5-0.2C147,57.6,146.8,57.4,147.3,56.9z M133.6,68c-0.5,0.8-1.5,1.8-2.8,3.2c0,0-0.7,0.7-2.2,2.2l-1.5,1.2
		c-0.2,0.2-0.3,0.2-0.8,0.2c0,0.8-0.3,1.3-0.8,1.5c0,0-0.2,0-0.5,0c-0.2-0.2-0.3-0.3-0.2-0.5c0.5-0.8,0.8-1.2,1.3-1.2
		c0.2-0.5,0.3-0.7,0.3-0.7c2.8-3.2,5.2-5.4,6.7-6.9c0-0.2,0.2-0.2,0.5-0.2h0.2c0.2,0.2,0.2,0.3,0.2,0.7
		C133.9,67.6,133.7,67.8,133.6,68z M133.7,66.3c0.1-0.2,0.2-0.3,0.3-0.4c0,0.3,0,0.6,0,1c-0.1,0-0.1-0.1-0.1-0.1
		S133.7,66.5,133.7,66.3z"/>
	<path class="st1" d="M15.4,50.3L15.4,50.3L15.4,50.3z"/>
	<path class="st1" d="M68.5,31.6c-0.4,1.3-1.6,2.3-1.5,3.8C67.7,34.2,68.9,33.2,68.5,31.6z"/>
	<path class="st1" d="M13.8,53c0.5-0.9,1.1-1.8,1.6-2.7C14.1,50.7,13.6,51.7,13.8,53z"/>
	<path class="st1" d="M81.1,29.7c1.2-2.2,2.5-4.4,3.8-6.5s2.7-4.1,4.1-6.1c0.9-1.2,2.1-2.3,3-3.5c0.4-0.6,0.9-1.5,0.8-2.1
		c-0.4-1.7-1.1-3.4-2.5-4.5c-0.7-0.6-1.9-1.2-3.1-0.7c-2.7,1.1-5.1,2.5-6.8,4.9c-2.8,3.9-5.3,7.9-7.6,12.1c-1.5,2.7-2.8,5.5-4.2,8.2
		c0.4-0.3,0.8-0.5,1-0.8c1.2-2,2.1-4.1,3.4-6c0.9-1.3,1.9-2.5,2.7-3.9c0.4-0.6,0.7-1.3,1.1-1.9c0.4-0.5,0.9-0.9,1.3-1.3
		c0.2,0.1,0.4,0.3,0.6,0.4c-3.2,5.4-6.5,10.9-9.1,16.6C66.9,40.3,64,46,61.4,51.8c-2.5,5.8-5.3,11.6-7.6,17.5
		c-2.3,5.8-4.3,11.8-6.4,17.9c-1-1.4-2-2.5-2.6-3.8c-1.2-2.6-2.4-5.2-3.3-7.9c-1-3.2-1.8-6.5-2.5-9.8c-0.5-2.5-1.1-5-1.2-7.6
		c-0.1-3.7,0-7.4,0.3-11.1c0.2-3.3,0.6-6.6,1.3-9.8c0.4-2,0.6-4,0.5-6c-0.1-1-0.2-2.1-0.7-3c-1.1-1.9-4.5-2.9-6.7-2.1
		c-0.7,0.2-1.3,0.2-2,0c-2-0.7-3.6-0.2-5,1.5c-0.2,0.3-0.5,0.6-0.8,0.8c-1.1,0.8-1.7,1.8-2.2,2.9c-1.2,2.9-2.5,5.8-3.8,8.8
		c-0.7,1.6-1.2,3.3-1.8,4.9c-0.1,0.3-0.2,0.7-0.4,1c-0.8,1.1-1.2,2.2-0.7,3.5c0.1,0.2-0.3,0.5-0.4,0.8l0,0c-0.4,1.2-0.9,2.4-1.3,3.7
		c-1.6,4.3-3.1,8.7-4.8,13C8,70.4,6.9,73.8,5.8,77.2c0,0.1-0.2,0.1-0.3,0.1c0-0.4-0.1-0.8-0.1-1.3c-0.5,1.3-1.2,2.5-0.1,3.8
		c-1,0.1-1.3,0.5-1.5,1.2c-0.5,2.5-1.1,5-1.7,7.5c-0.7,2.8-0.6,5.7-0.6,8.5c0,2.1,0.5,4,1.3,5.9c0.7,1.6,1.7,3.1,3.1,4.2
		c1.1,0.9,2.4,1.5,3.5,2.4c0.9,0.9,2.3,0.6,3.2,1.4c0.6,0.5,1.3,0.5,2.1,0.4c1.3,0,2.1-0.8,2.9-1.5c-0.6-1.5,0.3-2.9,0.6-4.5
		c-0.3-0.2-0.7-0.7-1.2-0.8c-0.6-0.1-1.2,0.1-1.6,0.7c-0.5,0.6-1.1,1.1-1.7,1.6c-1.1-0.8-1.1-2-1.5-2.9c-1.6-3.2-0.8-6.5-0.4-9.7
		c0.2-2,0.8-4,1.2-6c0.6-2.6,1.3-5.2,2.1-7.8c0.6-2.1,1.6-4.1,1.9-6.2c0.3-2.6,2.4-4.7,2.3-7.3c0-0.1,0.3-0.2,0.4-0.3
		c0.2-0.4,0.4-0.9,0.5-1.3s0.2-0.9,0.4-1.4c1.1-2.8,2.3-5.7,3.5-8.5c0.9-2.3,1.8-4.6,2.8-6.8c0.2-0.4,0.5-0.7,0.8-1.2
		c0.2,3.4,0.2,6.7,0.7,9.8c0.6,4,1.5,8,2.4,12c0.9,4.1,2.3,8.1,4.6,11.7c0.8,1.3,1.9,2.5,2.6,3.9c1.9,3.3,5.1,5.3,8.4,7.2
		c-0.5,0.8-0.7,1.8-0.3,2.9c0.8,2.4,1.9,4.6,3.8,6.4c0.7,0.6,1.2,0.5,2,0.4c0.2,1.4,1.7,1,2.3,1.5c1.1,0.9,2.1,0.5,3.3,0.3
		c0-0.4,0.3-1,0.1-1.3c-0.6-0.7-0.3-1.5-0.1-2c0.5-1.1,0-1.8-0.7-2.5c-0.5,0.2-0.8,0.4-1.4,0.6c-0.1-0.6-0.1-1.1-0.2-1.5
		c-0.2-3.3,0.5-6.6,1.3-9.8c1.5-5.7,4-11.1,6-16.7c0.3-0.7,0.2-1.6,0.6-2.2c2-3.2,3.2-6.6,4.6-10C69.2,54,71.2,50,73.1,46
		c2-4.1,4.1-8.1,6.1-12.2C79.9,32.4,80.4,31,81.1,29.7z M15.8,58.9c0.1,0,0.3,0,0.4,0c0,0.3-0.1,0.7-0.1,1c-0.2,0-0.3,0-0.5-0.1
		C15.7,59.6,15.7,59.3,15.8,58.9z M5,102.3c-0.7-1.3-1.2-2.3-0.9-3.9C5,99.4,5.3,100.6,5,102.3z M7.7,104.4
		c-0.5-2.3-0.9-4.7-0.1-7.1c0.2-0.4,0.1-0.9,0.2-1.4s0.2-1,0.4-1.8c0.6,0.8,0.4,1.4,0.3,2c-0.6,2.8-1,5.7-0.4,8.6
		C7.9,104.6,7.8,104.5,7.7,104.4z M8.1,104.7c0.2,0.3,0.5,0.7,0.7,1.1C7.9,105.7,7.9,105.2,8.1,104.7z M8.8,91.3
		c-0.2-0.1-0.4-0.2-0.5-0.3c0.4-0.6,0.7-1.1,1.3-2C9.9,90.2,9.7,90.9,8.8,91.3z M10.2,87.2c-0.5-1.3-0.2-2.8,1.2-4
		C11,84.5,10.6,85.8,10.2,87.2z M12.4,78c0-0.4,0-0.8,0.1-1.3c0.1,0,0.3,0,0.4,0c0,0.2-0.1,0.4-0.1,0.6s0,0.4,0.1,0.6
		C12.7,78,12.6,78,12.4,78z M13.4,67c-0.6,1.6-1.3,3.2-1.9,4.8c-0.3,0.9-0.7,1.7-0.5,2.8c0.1,0.5-0.5,1.2-0.8,1.8
		c-0.7,1.8-1.6,3.5-1.5,5.5c0,0.2,0,0.4-0.1,0.5C7,85,7,88,6.2,90.9c-0.3,1.2-0.3,2.5-0.4,3.7S5.3,97,4.5,98.3
		c-0.7-1.5-0.6-2.8-0.2-4C5,92.2,5.6,90.2,5.6,88c0-0.7,0.6-1.5,0.7-2.2c0.6-3.5,2-6.7,3.1-10.1c1.1-3.2,2.2-6.5,3.4-9.7
		c0.1-0.2,0.5-0.4,0.7-0.5C13.5,66.1,13.5,66.6,13.4,67z M13.5,65.4c0.2-0.9,0.4-1.8,0.5-2.7C14.9,63.8,14.1,64.6,13.5,65.4z
		 M14.7,61.3c0.1-0.2,0.3-0.5,0.4-0.7c0.2,0.1,0.4,0.2,0.5,0.4c-0.2,0.2-0.3,0.5-0.5,0.7C15,61.5,14.8,61.4,14.7,61.3z M15.9,68.5
		c-0.1,0-0.2-0.1-0.4-0.1c0.1-0.5,0.3-1,0.4-1.6c0.1,0.1,0.3,0.1,0.4,0.2C16.2,67.5,16.1,68,15.9,68.5z M30.2,48.6
		c1.2,0.5,0.4,1.2,0.4,1.7c0,0.7-0.3,1.1-1.4,1.2C29.6,50.4,29.9,49.5,30.2,48.6z M32,68.2c-0.2-0.3-0.4-0.5-0.4-0.8
		c-0.4-1.9-0.9-3.8-1.2-5.8c-0.3-2.2-0.4-4.4-0.8-6.6c-0.2-0.9,0.8-1.7,0.3-2.6c0,0,0.5-0.3,0.8-0.5c0.1,1.9-0.3,3.8,0.3,5.5
		c0.6,1.8-0.2,3.5,0.5,5.3C32.1,64.4,32,66.3,32,68.2z M32.8,72c-0.2-0.6-0.4-1.1-0.6-1.8C33.2,71,33.2,71,32.8,72z M34,61.6
		c1.6,7.1,2.9,14.4,5.6,21.2C37,79.4,34.5,68.8,34,61.6z M47,88.1c-0.2-0.1-0.4-0.2-0.6-0.4c0,0,0.2-0.3,0.3-0.6
		c0.2,0.2,0.4,0.3,0.4,0.5C47.2,87.8,47,88,47,88.1z M64.2,48.5c0.2,0.1,0.3,0.1,0.5,0.2c-0.4,0.7-0.7,1.4-1.1,2.1
		C63.3,49.8,63.7,49.2,64.2,48.5z M62.7,56.7c0.3-0.6,0.8-0.6,1.4-0.3c-0.4,0.2-0.8,0.5-1.3,0.7C62.7,57,62.6,56.8,62.7,56.7z
		 M52.6,74.7c1.6-3.4,2.8-7,4.2-10.5s3.3-6.9,5.3-10.2c-3.1,7-5.6,14.3-9.4,21.2C52.7,75,52.6,74.8,52.6,74.7z M62.3,59.9
		c-0.3,0.2-0.6,0.4-1.1,0.7C61.2,59.7,61.4,59.3,62.3,59.9z M60.3,63.6c0-0.6,0-1.1,0-2C61.4,62.7,61.4,62.8,60.3,63.6z M60.3,63.6
		c-0.2,0.6-0.3,1.2-0.5,1.8C59.4,64.1,59.4,64,60.3,63.6z M58.9,67.4c-0.3,0.3-0.3,0.8-0.5,1.2c-0.2,0.4-0.3,0.8-0.6,1.1
		c-0.2,0.3-0.6,0.6-0.9,0.9c-0.1-1.8,0.9-3,1.9-4.4C59.3,66.7,59.4,67,58.9,67.4z M54.9,77.3c-0.8,2.1-1.6,4.2-2.4,6.3
		c-0.1,0-0.2-0.1-0.4-0.1c0.5-2.2,1.1-4.4,2.3-6.3C54.7,77.2,54.8,77.2,54.9,77.3z M52.4,77.5c-0.3,0.7-0.5,1.4-0.9,2.4
		C50.8,78.6,51.5,78.1,52.4,77.5z M52,84.8c-0.1,0.3-0.2,0.6-0.3,0.9c-0.1,0-0.2-0.1-0.3-0.1c0.1-0.3,0.2-0.6,0.4-0.9
		C51.8,84.8,51.9,84.8,52,84.8z M50.7,82.8c-0.2-0.1-0.4-0.2-0.5-0.2c0.2-0.4,0.4-0.8,0.6-1.1c0.1,0,0.2,0.1,0.4,0.1
		C50.9,82,50.8,82.4,50.7,82.8z M54.3,85.3c-0.2,0.2-0.2,0.5-0.2,0.8c-0.4,1.2-0.9,2.5-1.2,3.7c-0.3,1.3-0.6,2.6-0.8,3.9
		c-0.1,1.1,0,2.2,0,3.4c0,0.2-0.1,0.4-0.2,0.6c-0.1,0-0.3,0-0.4,0c-0.1-0.7-0.4-1.4-0.3-2.1c0.4-2.8,0.8-5.5,1.2-8.3
		c1.3-1.5,0.8-3.7,2.5-5.1C55.2,83.4,55.2,84.4,54.3,85.3z M61.6,66.9c-0.5,1.2-1.1,2.3-1.7,3.5c-0.4,0.9-0.7,1.8-1,2.7
		c-0.6,1.5-1.1,3.1-1.7,4.6c-0.5,1.3-1,2.5-1.5,3.8c-0.2,0.4-0.3,0.8-0.9,0.7c0-0.6-0.1-1.2,0.1-1.7c0.7-1.8,1.4-3.5,2-5.4
		c0.8-2.6,2.2-5.1,3.5-7.7c0.3-0.6,0.7-1,1.1-1.5C61.6,66.3,61.7,66.6,61.6,66.9z M61.6,65.8c0-1.1,0.5-2,1.1-2.9
		C62.9,64.1,62.5,65,61.6,65.8z M65,58.7c-0.4,1-0.7,2.1-1.2,3.1c-0.2,0.4-0.6,0.6-1,0.9c0.4-2.1,1.2-4,2.4-5.8
		c0.1,0,0.3,0.1,0.4,0.1C65.4,57.6,65.2,58.1,65,58.7z M67.2,43c-0.1-0.1-0.2-0.1-0.2-0.2c0.2-0.2,0.4-0.4,0.7-0.6
		c0.1,0.1,0.2,0.2,0.3,0.3C67.6,42.6,67.4,42.8,67.2,43z"/>
	<path class="st1" d="M68.5,31.6C68.5,31.6,68.6,31.6,68.5,31.6C68.6,31.6,68.6,31.6,68.5,31.6c0-0.1,0-0.1,0-0.1
		C68.6,31.5,68.5,31.5,68.5,31.6L68.5,31.6z"/>
</g>
<path class="st1" d="M195.2,40.1c-1.1-1.4-2.2-2.7-3.6-4.2c-0.8-0.8-1.6-1.7-2.6-2.8c-0.1-0.1-0.3-0.2-0.4-0.3l-0.2-0.2
	c-0.1,0-0.2,0-0.3,0c-0.4,0-0.7,0-1.1,0c-0.8,0-1.6-0.1-2.6-0.1c2.5,0.1,1.6,0.2-0.6,0.2c-1.1,0-2.4,0-3.9-0.1
	c-0.8-0.1-1.2,0-1.4-0.2l0.1-0.5c0-0.3,0.1-0.6,0.1-0.9c0.2-1.6,0.3-3.3,0.4-5.1v-1.1H178c-1.2,0-2.5-0.1-3.7-0.1
	c-0.6,0-1.3,0-1.9,0h-1h-0.5l0,0c-0.1,0-0.1,0-0.1-0.1c0,0.1,0-0.2,0-0.4v-0.5v-1c0-1.3,0-2.7,0-4v-1.2h-1.2c-1.5,0-2.9,0-4.3-0.1
	c-1.1,0-2.1,0-3.3,0c-0.5,0-1,0-1.6,0c0,0-0.1,0-0.1-0.1v-0.1v-0.7v-1.6c0-1.1,0-2.1,0.1-3.1c0-2.1,0-4.2,0-6.2V4.1h-1.5
	c-8.6,0-17.2,0.1-26.5,0.1c-0.8,0-1.6,0-2.3,0h-1.4v1.3c0.1,2.7,0.2,5.2,0.3,7.6c0,1.1,0,2.3,0,3.4c0,0.3,0,0.4,0,0.5
	c-0.2,0-0.3,0-0.5,0c-2.9,0-5.3,0.1-7.7,0.2c2.6-0.1,4.6-0.1,7.5-0.2c0.3,0,0.3,0,0.3,0l0,0c0,0,0,0.1-0.5,0.1
	c-0.7,0.1-1.9,0.2-2.6,0.2c-0.6,0.1-1.4-0.2-2-0.1c-1.1,0-2.1,0.1-3.2,0.2h-0.7V18c0,0.1,0,0.3,0,0.4c0,0.6-0.2,0.5-0.1,0.8
	c0.1,1.8,0.3,3.1,0.3,4.3c0,0.4,0,0.9,0,1.1s0,0.5-0.1,0.6c-0.3,0-0.6,0-0.9,0s-0.6,0-1,0.1c-1,0-2.1,0.1-3.2,0.1
	c-1.1-0.4-2.7,0-3.8,0c-0.2,0-0.9,0.1-0.9,0.5c0,1,0,2.1,0.1,3.1c0,0.4-0.2,2.3,0.1,2.5c0,0,0.1,0.1,0.2,0.1l0,0c-2,0.1-4,0.2-6,0.2
	c-0.3,0-1.3,0.6-0.7,0.6h0.1l0,0c0.1,0,0.2,0,0.3,0c2,0,4,0,6-0.1c0.2,0,0.3,0.1,0.5,0.1c0.3,0,1-0.1,1.1-0.5c0.1-1.8,0-3.7,0-5.6
	c0.4,0,0.8,0,1.2-0.1c1.6,0,3.2,0,4.8,0h1.3h0.3c0.1,0,0.3,0,0.4,0h0.9h0.4c0.1-0.1,0-0.3,0.1-0.4l0.1-0.9l0.1-1.4
	c-0.3-0.3-0.7-0.4-0.5-0.8c0.3-0.3,0.5-0.5,0.6-0.8l0.1-1.5c0-0.2-0.1-0.3-0.1-0.5l0,0c-0.2-0.3-0.5-0.2-0.7,0
	c-0.1,0.2-0.1,0.4-0.1,0.5c0-0.1,0-0.4,0.1-0.5c0.2-0.2,0.4-0.5,0.5-0.8l0,0c0.1,0.2,0.1,0.4,0.2,0.6l0,0l0,0c0,0.1,0,0.1,0,0.2
	l0.2,0.2l0.1-1h0.2c0.3,0,0.5-0.1,0.7-0.1c0.8-0.2,1.6-0.5,2.1,0.4l0.6,0.1c0-0.1-0.1-0.1-0.1-0.2c0.1,0.1,0.2,0.1,0.2,0.2
	c0.8,0.1,1.7,0.2,2.6,0.3l0.6,0.1h0.2h0.4h0.7h1.5h0.8c0.1-0.1,0.1-0.5,0.1-0.7l0.2-1.5l0.1-0.8v-0.4v-0.2l0.1-1.3
	c0.3-2,0.5-4.1,0.7-6c6.4,0.4,12.8,0.6,19.6,1.2c-0.1,0.5-0.1,1-0.2,1.5c-0.1,1-0.3,2.1-0.4,3.1l-0.2,1.5L152,17v0.2
	c0,0.1,0,0,0,0.5c0,1.4,0.1,2.8,0.1,4.3l0.1,2v1c0,0.2,0,0.4,0,0.5h0.5c1.3,0.1,2.6,0.2,3.9,0.3l2,0.2c0.3,0,0.7,0.1,1,0.1
	s0.9,0,0.8,0l0.7,0.1c0.5,0,0.9,0,1.4,0.1c0.1,0.4,0.1,0.7,0.2,1.1l0.4,2.7l0.2,1.3c0,0.2,0.1,0.5,0.1,0.7l0.7,0.1l2.7,0.4l2.7,0.4
	c0.4,0.1,0.9,0.1,1.4,0.1h0.3l0,0c0,0.1,0,0.3,0,0.4l0.3,1.3c0.2,0.9,0.4,1.8,0.6,2.7l0.3,1.4c0.4,0.1,0.9,0.2,1.3,0.3
	c0.8,0.2,1.6,0.4,2.5,0.6c0.4,0.1,0.9,0.2,1.3,0.3l0.7,0.2c0.3,0,0.5,0,0.8,0h0.3h0.1h0.1h0.2l0.5-0.1c0.7-0.1,1.4-0.2,2.1-0.4
	c1.5-0.3,3.1-0.8,4.7-1.2l1-0.3c0,0,0,0,0.2,0.1c1.4,0.7,2.7,1.3,3.8,1.8c3.1,1.1,3.8,1.4,3.8,1.3C195.7,41,195.2,40.3,195.2,40.1z
	 M114.9,25.9L114.9,25.9C114.9,25.9,115,25.9,114.9,25.9C115,25.9,115,25.9,114.9,25.9c0.1,0,0.1-0.1,0.1-0.1s0,0,0.1,0l0.6,0.1
	C115.4,25.9,115.2,25.9,114.9,25.9z M121.2,18.5l-0.2,0.2c0-0.1,0-0.2,0-0.3l0.1-0.1C121.2,18.3,121.2,18.4,121.2,18.5z M120.7,18.6
	c0.1,0,0.1,0,0.2,0c-0.1,0-0.2,0.1-0.3,0.1L120.7,18.6z M132.1,15.9c-0.1,0.2-0.3,0.4-0.5,0.6l-0.2,0.2l-0.2,0.3
	c-0.1,0.2-0.2,0.3-0.4,0.4c-0.1-0.7-0.2-1.1,0-1.6s0.5-0.9,1-1.4C132.3,15,132.3,15.5,132.1,15.9z"/>
<g>
	<g>
		<path class="st1" d="M67.7,134.6v-0.4H69v-8.9h-1.3v-0.4h5c0.9,0,1.6,0.2,2.2,0.6c0.7,0.5,1.1,1.1,1.1,1.9c0,0.3,0,0.6-0.1,0.9
			c-0.3,0.9-1,1.4-2.1,1.7l2.6,4.2h0.5c0.1,0,0.1,0,0.2,0c0.2,0,0.2,0.2,0.2,0.4h-2.6l-2.5-4.5h-1.3v4h1.3v0.4h-4.5
			C67.7,134.5,67.7,134.6,67.7,134.6z M70.8,125.3v4.4h1.4c0.4,0,0.8-0.1,1.1-0.4c0.5-0.4,0.8-1,0.8-1.9c0-0.3-0.1-0.7-0.2-1
			c-0.3-0.8-0.9-1.2-1.8-1.2L70.8,125.3L70.8,125.3z"/>
		<path class="st1" d="M80,134.6v-0.4h1.3v-8.9H80v-0.4h4.3v0.4H83v8.9h0.9c0.1,0,0.1,0,0.2,0c0.2,0,0.3,0.2,0.3,0.4H80z"/>
		<path class="st1" d="M92.2,134.7c-0.2,0-0.4,0-0.5-0.1c-0.2-0.1-0.4-0.5-0.6-1.1l-3.1-8.1h-0.9V125h4v0.4h-1.3l2.9,7.4l2.6-7.4H94
			V125h2.7v0.4h-0.8l-3.4,9.4L92.2,134.7L92.2,134.7z"/>
		<path class="st1" d="M99.5,134.6v-0.4h1.3v-8.9h-1.3v-0.4h4.3v0.4h-1.3v8.9h0.9c0.1,0,0.1,0,0.2,0c0.2,0,0.3,0.2,0.3,0.4H99.5z"/>
		<path class="st1" d="M114.6,127.9l-0.3-0.9v-0.1c-0.3-1-0.9-1.6-1.8-1.6h-2.3v4.1h3.3v0.5h-3.3v4.4h2.3c0.1,0,0.3,0,0.4,0
			c0.7-0.1,1.1-0.7,1.4-1.6l0.3-0.9h0.4l-0.1,3h-7.7v-0.4h1.3v-8.9h-1.3v-0.4h7.7l0.1,3h-0.4V127.9z"/>
		<path class="st1" d="M118.6,134.6v-0.4h1.3v-8.9h-1.3v-0.4h5c0.9,0,1.6,0.2,2.2,0.6c0.7,0.5,1.1,1.1,1.1,1.9c0,0.3,0,0.6-0.1,0.9
			c-0.3,0.9-1,1.4-2.1,1.7l2.6,4.2h0.5c0.1,0,0.1,0,0.2,0c0.2,0,0.2,0.2,0.2,0.4h-2.6l-2.5-4.5h-1.3v4h1.3v0.4h-4.5V134.6z
			 M121.7,125.3v4.4h1.4c0.4,0,0.8-0.1,1.1-0.4c0.5-0.4,0.8-1,0.8-1.9c0-0.3-0.1-0.7-0.2-1c-0.3-0.8-0.9-1.2-1.8-1.2L121.7,125.3
			L121.7,125.3z"/>
		<path class="st1" d="M136.7,134.6v-0.4h1.1l-1.2-3.1h-3.3l-1.2,3.1h0.8c0.1,0,0.1,0,0.2,0c0.1,0,0.2,0.2,0.2,0.4h-2.9v-0.4h1
			l3.6-9.3h0.9l3.8,9.3h0.5c0.1,0,0.1,0,0.2,0c0.2,0,0.2,0.2,0.2,0.4H136.7z M134.9,126.7l-1.5,3.8h3L134.9,126.7z"/>
		<path class="st1" d="M161.2,125.3h-1.3v8.9h0.9c0.1,0,0.1,0,0.2,0c0.2,0,0.3,0.2,0.3,0.4H157v-0.4h1.3v-7.8l-3.6,8.3h-0.3
			l-3.5-7.2v6.7h0.9c0.2,0,0.4,0.2,0.4,0.4h-3.3v-0.4h1.3v-8.9h-1.3v-0.4h2.6l3.6,7.6l3.2-7.6h3L161.2,125.3L161.2,125.3z"/>
		<path class="st1" d="M170.2,134.6v-0.4h1.1l-1.2-3.1h-3.3l-1.2,3.1h0.8c0.1,0,0.1,0,0.2,0c0.1,0,0.2,0.2,0.2,0.4h-2.9v-0.4h1
			l3.6-9.3h0.9l3.8,9.3h0.5c0.1,0,0.1,0,0.2,0c0.2,0,0.2,0.2,0.2,0.4H170.2z M168.4,126.7l-1.5,3.8h3L168.4,126.7z"/>
		<path class="st1" d="M178.8,134.6v-0.4h1.3v-3.6l-3-5.3h-0.8v-0.4h4v0.4h-1.2l2.5,4.6l2.4-4.6h-1.3v-0.4h2.9c0,0.1,0,0.1,0,0.2
			c0,0.2-0.2,0.3-0.4,0.3c-0.4,0-0.6,0.2-0.9,0.5l-2.3,4.7v3.7h0.9c0.2,0,0.4,0.2,0.4,0.4L178.8,134.6L178.8,134.6z"/>
		<path class="st1" d="M194.2,134.6v-0.4h1.1l-1.2-3.1h-3.3l-1.2,3.1h0.8c0.1,0,0.1,0,0.2,0c0.1,0,0.2,0.2,0.2,0.4h-2.9v-0.4h1
			l3.6-9.3h0.9l3.8,9.3h0.5c0.1,0,0.1,0,0.2,0c0.2,0,0.2,0.2,0.2,0.4H194.2z M192.4,126.7l-1.5,3.8h3L192.4,126.7z"/>
	</g>
</g>
<rect x="-54" y="6.4" class="st2" width="29" height="29"/>
<rect x="-54" y="35.4" class="st3" width="29" height="29"/>
<rect x="-54" y="64.4" class="st1" width="29" height="29"/>
<rect x="-54" y="93.4" class="st4" width="29" height="29"/>
</svg>
